<svg width="30" height="31" viewBox="0 0 30 31" xmlns="http://www.w3.org/2000/svg">
<path d="M15 0.916666C6.94561 0.916666 0.416656 7.44562 0.416656 15.5C0.416656 23.5544 6.94561 30.0833 15 30.0833C23.0544 30.0833 29.5833 23.5544 29.5833 15.5C29.5833 7.44562 23.0544 0.916666 15 0.916666ZM18.7712 21.3333L13.9689 16.531C13.6948 16.2569 13.5417 15.8865 13.5417 15.5V8.20833C13.5417 7.40333 14.195 6.75 15 6.75C15.805 6.75 16.4583 7.40333 16.4583 8.20833V14.8962L20.8333 19.2712C21.4021 19.84 21.4021 20.7646 20.8333 21.3333C20.2646 21.9021 19.34 21.9021 18.7712 21.3333Z" />
</svg>
