<svg width="45" height="45" viewBox="0 0 45 45" fill="none" xmlns="http://www.w3.org/2000/svg">
<circle cx="22.75" cy="22.75" r="18.75" fill="white"/>
<path fill-rule="evenodd" clip-rule="evenodd" d="M22.75 41.5C33.1053 41.5 41.5 33.1053 41.5 22.75C41.5 12.3947 33.1053 4 22.75 4C12.3947 4 4 12.3947 4 22.75C4 33.1053 12.3947 41.5 22.75 41.5ZM13.5173 32.8298C13.5232 33.3765 13.9683 33.8127 14.515 33.8127H15.8196C16.3626 33.8127 16.8062 33.3794 16.8172 32.8364C16.8413 31.6536 16.8803 29.5193 16.9039 27.1227L16.9757 20.5042L19.0939 25.2981C19.4098 25.9832 19.7161 26.6491 19.9984 27.263C20.8071 29.0214 21.4196 30.353 21.4994 30.4856C21.6789 30.8075 21.8225 30.8433 22.9355 30.8433C23.7612 30.8433 24.2279 30.8075 24.3356 30.6644C24.4075 30.5571 25.4845 28.2317 26.7411 25.477L29.0029 20.4684L29.0747 27.1227L29.1358 32.7877C29.1418 33.3358 29.5877 33.7769 30.1358 33.7769H31.4495C32.0018 33.7769 32.4495 33.3292 32.4495 32.7769V23.1516V13.5009C32.4495 12.9586 32.0172 12.5151 31.4751 12.5013L31.0493 12.4904C30.2954 12.4546 29.5055 12.4904 29.326 12.5262C29.0747 12.5977 28.3926 14.0645 26.0589 19.3236C24.4434 23.0442 23.0791 26.0136 23.0073 25.9421C22.9355 25.8705 21.5712 22.8296 19.9556 19.2162C17.867 14.5492 17.0894 12.9675 16.7623 12.609C16.6999 12.5406 16.6056 12.5262 16.513 12.5262H14.5257C13.9748 12.5262 13.5276 12.9718 13.5257 13.5227L13.4932 23.0084C13.4668 27.2413 13.4986 31.0878 13.5173 32.8298Z" fill="url(#paint0_linear_739_937)"/>
<defs>
<linearGradient id="paint0_linear_739_937" x1="41.5" y1="4" x2="4" y2="41.5" gradientUnits="userSpaceOnUse">
<stop stop-color="#EE9D37"/>
<stop offset="1" stop-color="#FD6202"/>
</linearGradient>
</defs>
</svg>
